<svg xmlns="http://www.w3.org/2000/svg" width="120" height="120" fill="none"><g fill="#000" clip-path="url(#a)"><path d="M110 86.09c-6.305 18.02-19.104 34.1-30.7 34.1-4.666 0-6.375-4.619-16.17-4.619-9.795 0-13.814 4.619-18.48 4.619C28.48 120.19 10 88.978 10 64.741c0-24.235 16.171-34.654 30.03-34.654 7.462 0 15.5 4.62 23.1 4.62 7.6 0 13.33-4.62 20.79-4.62 7.785 0 16.309 3.28 22.27 10.466-7.81 4.435-13.03 12.567-13.03 21.88 0 10.765 6.976 19.96 16.84 23.657ZM79.226 18.478a23.257 23.257 0 0 0 3.788-6.835c1.287-3.671 1.782-7.772.906-11.589-.06-.265-3.676.542-4.005.633a32.29 32.29 0 0 0-5.737 2.217c-7.992 4.002-15.344 11.781-15.894 21.091-.073 1.237-.077 2.57.225 3.783.049.19 2.672-.028 2.854-.04 7.047-.505 13.577-3.889 17.863-9.26Z"/></g><defs><clipPath id="a"><path fill="#fff" d="M0 0h120v120H0z"/></clipPath></defs></svg>