<svg xmlns="http://www.w3.org/2000/svg" width="138" height="138" fill="none"><path stroke="#000" stroke-width="4" d="M94.96 72.04V48.918a10 10 0 0 0-3.998-7.998L80.409 33a10 10 0 0 0-6.002-2H49.48c-5.523 0-10 4.477-10 10v53.72c0 5.523 4.477 10 10 10h17.74"/><path stroke="#000" stroke-width="3" d="m57.34 45.44-6.047 6.623a3 3 0 0 0 .094 4.144l5.953 5.953m8.36-16.72 6.047 6.623a3 3 0 0 1-.094 4.144L65.7 62.16"/><circle cx="83.56" cy="91.04" r="13.96" stroke="#000" stroke-width="4"/><path stroke="#000" stroke-width="4" d="m74.06 80.4 18.62 21.66"/></svg>