<svg xmlns="http://www.w3.org/2000/svg" width="49" height="49" fill="none"><path fill="#F0F1F2" d="M.246.554h48v48h-48z"/><path fill="url(#a)" d="M32.335 14.396c-4.604-4.53-12.068-4.53-16.672 0a11.466 11.466 0 0 0 0 16.402l6.232 6.131a3 3 0 0 0 4.207 0l6.233-6.13a11.466 11.466 0 0 0 0-16.403Zm-8.337 12.077a3.663 3.663 0 0 1-2.605-1.079 3.689 3.689 0 0 1 0-5.211 3.66 3.66 0 0 1 2.605-1.079c.985 0 1.91.383 2.606 1.079a3.689 3.689 0 0 1 0 5.211 3.66 3.66 0 0 1-2.606 1.079Z"/><path fill="url(#b)" d="M32.335 14.396c-4.604-4.53-12.068-4.53-16.672 0a11.466 11.466 0 0 0 0 16.402l6.232 6.131a3 3 0 0 0 4.207 0l6.233-6.13a11.466 11.466 0 0 0 0-16.403Zm-8.337 12.077a3.663 3.663 0 0 1-2.605-1.079 3.689 3.689 0 0 1 0-5.211 3.66 3.66 0 0 1 2.605-1.079c.985 0 1.91.383 2.606 1.079a3.689 3.689 0 0 1 0 5.211 3.66 3.66 0 0 1-2.606 1.079Z" style="mix-blend-mode:screen"/><defs><linearGradient id="a" x1="23.999" x2="23.999" y1="10.999" y2="38.999" gradientUnits="userSpaceOnUse"><stop stop-color="#23CCFF"/><stop offset=".495" stop-color="#1C3FCD"/><stop offset="1" stop-color="#153899"/></linearGradient><linearGradient id="b" x1="23.999" x2="23.999" y1="10.999" y2="38.999" gradientUnits="userSpaceOnUse"><stop stop-color="#23CCFF"/><stop offset=".495" stop-color="#1C3FCD"/><stop offset="1" stop-color="#153899"/></linearGradient></defs></svg>