<svg xmlns="http://www.w3.org/2000/svg" width="138" height="138" fill="none"><mask id="a" fill="#fff"><path d="M22 41c0-5.523 4.477-10 10-10h10c5.523 0 10 4.477 10 10v15c0 5.523-4.477 10-10 10H32c-5.523 0-10-4.477-10-10V41Z"/></mask><path fill="#fff" d="M32 31v4h10v-8H32v4Zm20 10h-4v15h8V41h-4ZM42 66v-4H32v8h10v-4ZM22 56h4V41h-8v15h4Zm10 10v-4a6 6 0 0 1-6-6h-8c0 7.732 6.268 14 14 14v-4Zm20-10h-4a6 6 0 0 1-6 6v8c7.732 0 14-6.268 14-14h-4ZM42 31v4a6 6 0 0 1 6 6h8c0-7.732-6.268-14-14-14v4Zm-10 0v-4c-7.732 0-14 6.268-14 14h8a6 6 0 0 1 6-6v-4Z" mask="url(#a)"/><mask id="b" fill="#fff"><path d="M22 82c0-5.523 4.477-10 10-10h25c5.523 0 10 4.477 10 10v15c0 5.523-4.477 10-10 10H32c-5.523 0-10-4.477-10-10V82Z"/></mask><path fill="#fff" d="M32 72v4h25v-8H32v4Zm35 10h-4v15h8V82h-4Zm-10 25v-4H32v8h25v-4ZM22 97h4V82h-8v15h4Zm10 10v-4a6 6 0 0 1-6-6h-8c0 7.732 6.268 14 14 14v-4Zm35-10h-4a6 6 0 0 1-6 6v8c7.732 0 14-6.268 14-14h-4ZM57 72v4a6 6 0 0 1 6 6h8c0-7.732-6.268-14-14-14v4Zm-25 0v-4c-7.732 0-14 6.268-14 14h8a6 6 0 0 1 6-6v-4Z" mask="url(#b)"/><mask id="c" fill="#fff"><path d="M73 82c0-5.523 4.477-10 10-10h25c5.523 0 10 4.477 10 10v15c0 5.523-4.477 10-10 10H83c-5.523 0-10-4.477-10-10V82Z"/></mask><path fill="#fff" d="M83 72v4h25v-8H83v4Zm35 10h-4v15h8V82h-4Zm-10 25v-4H83v8h25v-4ZM73 97h4V82h-8v15h4Zm10 10v-4a6 6 0 0 1-6-6h-8c0 7.732 6.268 14 14 14v-4Zm35-10h-4a6 6 0 0 1-6 6v8c7.732 0 14-6.268 14-14h-4Zm-10-25v4a6 6 0 0 1 6 6h8c0-7.732-6.268-14-14-14v4Zm-25 0v-4c-7.732 0-14 6.268-14 14h8a6 6 0 0 1 6-6v-4Z" mask="url(#c)"/><mask id="d" fill="#fff"><path d="M57 41c0-5.523 4.477-10 10-10h41c5.523 0 10 4.477 10 10v15c0 5.523-4.477 10-10 10H67c-5.523 0-10-4.477-10-10V41Z"/></mask><path fill="#fff" d="M67 31v4h41v-8H67v4Zm51 10h-4v15h8V41h-4Zm-10 25v-4H67v8h41v-4ZM57 56h4V41h-8v15h4Zm10 10v-4a6 6 0 0 1-6-6h-8c0 7.732 6.268 14 14 14v-4Zm51-10h-4a6 6 0 0 1-6 6v8c7.732 0 14-6.268 14-14h-4Zm-10-25v4a6 6 0 0 1 6 6h8c0-7.732-6.268-14-14-14v4Zm-41 0v-4c-7.732 0-14 6.268-14 14h8a6 6 0 0 1 6-6v-4Z" mask="url(#d)"/></svg>