<svg xmlns="http://www.w3.org/2000/svg" width="138" height="138" fill="none"><mask id="a" fill="#fff"><path d="M21 32c0-5.523 4.477-10 10-10h75c5.523 0 10 4.477 10 10v2c0 5.523-4.477 10-10 10H31c-5.523 0-10-4.477-10-10v-2Z"/></mask><path fill="#fff" d="M31 22v4h75v-8H31v4Zm85 10h-4v2h8v-2h-4Zm-10 12v-4H31v8h75v-4ZM21 34h4v-2h-8v2h4Zm10 10v-4a6 6 0 0 1-6-6h-8c0 7.732 6.268 14 14 14v-4Zm85-10h-4a6 6 0 0 1-6 6v8c7.732 0 14-6.268 14-14h-4Zm-10-12v4a6 6 0 0 1 6 6h8c0-7.732-6.268-14-14-14v4Zm-75 0v-4c-7.732 0-14 6.268-14 14h8a6 6 0 0 1 6-6v-4Z" mask="url(#a)"/><rect width="18" height="2" x="31" y="32" stroke="#fff" stroke-width="2" rx="1"/><rect width="4" height="2" x="76" y="32" stroke="#fff" stroke-width="2" rx="1"/><rect width="4" height="2" x="88" y="32" stroke="#fff" stroke-width="2" rx="1"/><rect width="4" height="2" x="100" y="32" stroke="#fff" stroke-width="2" rx="1"/><mask id="b" fill="#fff"><path d="M21 62c0-5.523 4.477-10 10-10h75c5.523 0 10 4.477 10 10v49c0 5.523-4.477 10-10 10H31c-5.523 0-10-4.477-10-10V62Z"/></mask><path fill="#fff" d="M31 52v4h75v-8H31v4Zm85 10h-4v49h8V62h-4Zm-10 59v-4H31v8h75v-4Zm-85-10h4V62h-8v49h4Zm10 10v-4a6 6 0 0 1-6-6h-8c0 7.732 6.268 14 14 14v-4Zm85-10h-4a6 6 0 0 1-6 6v8c7.732 0 14-6.268 14-14h-4Zm-10-59v4a6 6 0 0 1 6 6h8c0-7.732-6.268-14-14-14v4Zm-75 0v-4c-7.732 0-14 6.268-14 14h8a6 6 0 0 1 6-6v-4Z" mask="url(#b)"/><rect width="26" height="2" x="33" y="70" stroke="#fff" stroke-width="2" rx="1"/><rect width="36" height="2" x="33" y="96" stroke="#fff" stroke-width="2" rx="1"/><rect width="19" height="2" x="33" y="83" stroke="#fff" stroke-width="2" rx="1"/></svg>