<svg xmlns="http://www.w3.org/2000/svg" width="48" height="48" fill="none"><path fill="#F0F1F2" d="M0 0h48v48H0z"/><path fill="url(#a)" d="M37 30.4v-9.94c0-.803-.897-1.28-1.562-.831-3.097 2.09-9.866 6.632-11.6 7.568a.658.658 0 0 1-.637.001c-1.733-.93-8.534-5.482-11.64-7.573a1.002 1.002 0 0 0-1.561.832V30.4c0 1.643.358 1.972 2.025 1.972h22.95c1.707 0 2.025-.289 2.025-1.972Zm-.017-14.135a.114.114 0 0 1-.003-.025c-.002-1.187-.364-1.611-2.005-1.611h-22.95c-1.694 0-2.025.513-2.025 1.708.013.117.074.22.171.286 1.318.881 10.865 7.257 13.027 8.373a.675.675 0 0 0 .641-.005c2.249-1.197 12.272-8.046 13.106-8.616.037-.025.048-.066.038-.11Z"/><path fill="url(#b)" d="M37 30.4v-9.94c0-.803-.897-1.28-1.562-.831-3.097 2.09-9.866 6.632-11.6 7.568a.658.658 0 0 1-.637.001c-1.733-.93-8.534-5.482-11.64-7.573a1.002 1.002 0 0 0-1.561.832V30.4c0 1.643.358 1.972 2.025 1.972h22.95c1.707 0 2.025-.289 2.025-1.972Zm-.017-14.135a.114.114 0 0 1-.003-.025c-.002-1.187-.364-1.611-2.005-1.611h-22.95c-1.694 0-2.025.513-2.025 1.708.013.117.074.22.171.286 1.318.881 10.865 7.257 13.027 8.373a.675.675 0 0 0 .641-.005c2.249-1.197 12.272-8.046 13.106-8.616.037-.025.048-.066.038-.11Z" style="mix-blend-mode:screen"/><defs><linearGradient id="a" x1="12.921" x2="34.631" y1="16.011" y2="32.959" gradientUnits="userSpaceOnUse"><stop stop-color="#23CCFF"/><stop offset=".495" stop-color="#1C3FCD"/><stop offset="1" stop-color="#153899"/></linearGradient><linearGradient id="b" x1="12.921" x2="34.631" y1="16.011" y2="32.959" gradientUnits="userSpaceOnUse"><stop stop-color="#23CCFF"/><stop offset=".495" stop-color="#1C3FCD"/><stop offset="1" stop-color="#153899"/></linearGradient></defs></svg>