<svg xmlns="http://www.w3.org/2000/svg" width="138" height="138" fill="none"><mask id="a" fill="#fff"><path d="M29.5 45a8 8 0 0 1 8-8h64a8 8 0 0 1 8 8v48a8 8 0 0 1-8 8h-64a8 8 0 0 1-8-8V45Z"/></mask><path fill="#000" d="M37.5 37v4h64v-8h-64v4Zm72 8h-4v48h8V45h-4Zm-8 56v-4h-64v8h64v-4Zm-72-8h4V45h-8v48h4Zm8 8v-4a4 4 0 0 1-4-4h-8c0 6.627 5.373 12 12 12v-4Zm72-8h-4a4 4 0 0 1-4 4v8c6.627 0 12-5.373 12-12h-4Zm-8-56v4a4 4 0 0 1 4 4h8c0-6.627-5.373-12-12-12v4Zm-64 0v-4c-6.627 0-12 5.373-12 12h8a4 4 0 0 1 4-4v-4Z" mask="url(#a)"/><path stroke="#000" stroke-width="4" d="m72.708 73.16 1.868-11.8c.155-.98-1.06-1.564-1.728-.828L59.32 75.425a1 1 0 0 0 .546 1.654l6.369 1.262a1 1 0 0 1 .688 1.451l-5.491 10.3c-.527.988.719 1.963 1.55 1.214l15.034-13.521a1 1 0 0 0-.278-1.664l-4.434-1.883a1 1 0 0 1-.597-1.077ZM31.605 53h75.79"/><circle cx="39.605" cy="46.263" r="2.526" fill="#000"/><circle cx="48.026" cy="46.263" r="2.526" fill="#000"/><circle cx="56.447" cy="46.263" r="2.526" fill="#000"/></svg>