<svg xmlns="http://www.w3.org/2000/svg" width="138" height="138" fill="none"><path fill="#fff" d="M90.5 58.25a13.438 13.438 0 0 0-8.062-24.188H58.25a13.438 13.438 0 0 0-8.062 24.188 13.436 13.436 0 0 0 .46 21.836 14.782 14.782 0 1 0 23.727 11.758V79.75A13.437 13.437 0 0 0 90.5 58.25Zm0-10.75a8.062 8.062 0 0 1-8.062 8.063h-8.063V39.436h8.063A8.062 8.062 0 0 1 90.5 47.5Zm-40.312 0a8.062 8.062 0 0 1 8.062-8.063H69v16.126H58.25a8.062 8.062 0 0 1-8.062-8.063Zm8.062 29.563a8.062 8.062 0 1 1 0-16.126H69v16.126H58.25ZM69 91.843a9.406 9.406 0 1 1-9.406-9.406H69v9.407Zm13.438-14.78a8.062 8.062 0 1 1 0-16.125 8.062 8.062 0 0 1 0 16.124Z"/></svg>