<svg xmlns="http://www.w3.org/2000/svg" width="138" height="138" fill="none"><mask id="a" fill="#fff"><path d="M45.382 39c0-5.523 4.477-10 10-10h27.237c5.522 0 10 4.477 10 10v59c0 5.523-4.478 10-10 10H55.382c-5.523 0-10-4.477-10-10V39Z"/></mask><path fill="#fff" d="M55.382 29v4h27.237v-8H55.382v4Zm37.237 10h-4v59h8V39h-4Zm-10 69v-4H55.382v8h27.237v-4ZM45.382 98h4V39h-8v59h4Zm10 10v-4a6 6 0 0 1-6-6h-8c0 7.732 6.268 14 14 14v-4Zm37.237-10h-4a6 6 0 0 1-6 6v8c7.732 0 14-6.268 14-14h-4Zm-10-69v4a6 6 0 0 1 6 6h8c0-7.732-6.268-14-14-14v4Zm-27.237 0v-4c-7.732 0-14 6.268-14 14h8a6 6 0 0 1 6-6v-4Z" mask="url(#a)"/><path stroke="#fff" stroke-dasharray="4 4" stroke-width="3" d="M69 30.222v76.556m21.99-38.685H45.382"/></svg>