<svg xmlns="http://www.w3.org/2000/svg" width="48" height="48" fill="none"><path fill="#F0F1F2" d="M0 0h48v48H0z"/><path fill="url(#a)" d="M35.7 24c.718 0 1.307-.584 1.235-1.298a13.003 13.003 0 0 0-11.637-11.637C24.584 10.993 24 11.582 24 12.3c0 .718.584 1.292 1.297 1.381a10.402 10.402 0 0 1 9.022 9.022c.09.713.663 1.297 1.381 1.297Z"/><path fill="url(#b)" d="M11 21.4v-6.5a1.3 1.3 0 0 1 1.3-1.3h6.5a1.3 1.3 0 0 1 1.3 1.3v5.2a1.3 1.3 0 0 1-1.3 1.3c-1.436 0-2.633 1.182-2.28 2.574a10.418 10.418 0 0 0 7.506 7.505c1.392.354 2.574-.843 2.574-2.279a1.3 1.3 0 0 1 1.3-1.3h5.2a1.3 1.3 0 0 1 1.3 1.3v6.5a1.3 1.3 0 0 1-1.3 1.3h-6.5C17.984 37 11 30.016 11 21.4Z"/><path fill="url(#c)" d="M31.206 21.015c.243.585.412 1.196.506 1.82.097.638-.436 1.165-1.082 1.165-.646 0-1.157-.53-1.295-1.161a5.46 5.46 0 0 0-4.174-4.174C24.53 18.528 24 18.016 24 17.37c0-.646.527-1.179 1.166-1.082a7.806 7.806 0 0 1 6.04 4.727Z"/><g style="mix-blend-mode:screen"><path fill="url(#d)" d="M35.7 24c.718 0 1.307-.584 1.235-1.298a13.003 13.003 0 0 0-11.637-11.637C24.584 10.993 24 11.582 24 12.3c0 .718.584 1.292 1.297 1.381a10.402 10.402 0 0 1 9.022 9.022c.09.713.663 1.297 1.381 1.297Z"/><path fill="url(#e)" d="M11 21.4v-6.5a1.3 1.3 0 0 1 1.3-1.3h6.5a1.3 1.3 0 0 1 1.3 1.3v5.2a1.3 1.3 0 0 1-1.3 1.3c-1.436 0-2.633 1.182-2.28 2.574a10.418 10.418 0 0 0 7.506 7.505c1.392.354 2.574-.843 2.574-2.279a1.3 1.3 0 0 1 1.3-1.3h5.2a1.3 1.3 0 0 1 1.3 1.3v6.5a1.3 1.3 0 0 1-1.3 1.3h-6.5C17.984 37 11 30.016 11 21.4Z"/><path fill="url(#f)" d="M31.206 21.015c.243.585.412 1.196.506 1.82.097.638-.436 1.165-1.082 1.165-.646 0-1.157-.53-1.295-1.161a5.46 5.46 0 0 0-4.174-4.174C24.53 18.528 24 18.016 24 17.37c0-.646.527-1.179 1.166-1.082a7.806 7.806 0 0 1 6.04 4.727Z"/></g><defs><linearGradient id="a" x1="24" x2="24" y1="11" y2="37" gradientUnits="userSpaceOnUse"><stop stop-color="#23CCFF"/><stop offset=".495" stop-color="#1C3FCD"/><stop offset="1" stop-color="#153899"/></linearGradient><linearGradient id="b" x1="24" x2="24" y1="11" y2="37" gradientUnits="userSpaceOnUse"><stop stop-color="#23CCFF"/><stop offset=".495" stop-color="#1C3FCD"/><stop offset="1" stop-color="#153899"/></linearGradient><linearGradient id="c" x1="24" x2="24" y1="11" y2="37" gradientUnits="userSpaceOnUse"><stop stop-color="#23CCFF"/><stop offset=".495" stop-color="#1C3FCD"/><stop offset="1" stop-color="#153899"/></linearGradient><linearGradient id="d" x1="24" x2="24" y1="11" y2="37" gradientUnits="userSpaceOnUse"><stop stop-color="#23CCFF"/><stop offset=".495" stop-color="#1C3FCD"/><stop offset="1" stop-color="#153899"/></linearGradient><linearGradient id="e" x1="24" x2="24" y1="11" y2="37" gradientUnits="userSpaceOnUse"><stop stop-color="#23CCFF"/><stop offset=".495" stop-color="#1C3FCD"/><stop offset="1" stop-color="#153899"/></linearGradient><linearGradient id="f" x1="24" x2="24" y1="11" y2="37" gradientUnits="userSpaceOnUse"><stop stop-color="#23CCFF"/><stop offset=".495" stop-color="#1C3FCD"/><stop offset="1" stop-color="#153899"/></linearGradient></defs></svg>