<svg xmlns="http://www.w3.org/2000/svg" width="138" height="138" fill="none"><mask id="a" fill="#fff"><path d="M29 42.137c0-5.523 4.477-10 10-10h23.137c5.523 0 10 4.477 10 10v3.53c0 5.523-4.477 10-10 10H39c-5.523 0-10-4.477-10-10v-3.53Z"/></mask><path fill="#000" d="M39 32.137v4h23.137v-8H39v4Zm33.137 10h-4v3.53h8v-3.53h-4Zm-10 13.53v-4H39v8h23.137v-4ZM29 45.667h4v-3.53h-8v3.53h4Zm10 10v-4a6 6 0 0 1-6-6h-8c0 7.732 6.268 14 14 14v-4Zm33.137-10h-4a6 6 0 0 1-6 6v8c7.732 0 14-6.268 14-14h-4Zm-10-13.53v4a6 6 0 0 1 6 6h8c0-7.732-6.268-14-14-14v4Zm-23.137 0v-4c-7.732 0-14 6.268-14 14h8a6 6 0 0 1 6-6v-4Z" mask="url(#a)"/><mask id="b" fill="#fff"><path d="M29 69.392a5.882 5.882 0 0 1 11.765 0 5.882 5.882 0 1 1-11.765 0Z"/></mask><path fill="#000" d="M34.882 75.275v-4A1.882 1.882 0 0 1 33 69.392h-8c0 5.458 4.424 9.883 9.882 9.883v-4Zm5.883-5.883h-4c0 1.04-.843 1.883-1.883 1.883v8c5.458 0 9.883-4.425 9.883-9.883h-4Zm-5.883-5.882v4c1.04 0 1.883.843 1.883 1.882h8c0-5.458-4.425-9.882-9.883-9.882v4Zm0 0v-4c-5.457 0-9.882 4.424-9.882 9.882h8c0-1.04.843-1.882 1.882-1.882v-4Z" mask="url(#b)"/><mask id="c" fill="#fff"><path d="M29 85.078a5.882 5.882 0 1 1 11.765 0 5.882 5.882 0 0 1-11.765 0Z"/></mask><path fill="#000" d="M34.882 90.96v-4A1.882 1.882 0 0 1 33 85.079h-8c0 5.458 4.424 9.883 9.882 9.883v-4Zm5.883-5.882h-4c0 1.04-.843 1.883-1.883 1.883v8c5.458 0 9.883-4.425 9.883-9.883h-4Zm-5.883-5.882v4c1.04 0 1.883.843 1.883 1.882h8c0-5.457-4.425-9.882-9.883-9.882v4Zm0 0v-4c-5.457 0-9.882 4.425-9.882 9.882h8c0-1.04.843-1.882 1.882-1.882v-4Z" mask="url(#c)"/><mask id="d" fill="#fff"><path d="M29 99.98a5.882 5.882 0 1 1 11.765 0 5.883 5.883 0 0 1-11.765 0Z"/></mask><path fill="#000" d="M34.882 105.863v-4A1.883 1.883 0 0 1 33 99.98h-8c0 5.458 4.424 9.883 9.882 9.883v-4Zm5.883-5.883h-4c0 1.04-.843 1.883-1.883 1.883v8c5.458 0 9.883-4.425 9.883-9.883h-4Zm-5.883-5.882v4c1.04 0 1.883.843 1.883 1.882h8c0-5.458-4.425-9.882-9.883-9.882v4Zm0 0v-4c-5.457 0-9.882 4.424-9.882 9.882h8c0-1.04.843-1.882 1.882-1.882v-4Z" mask="url(#d)"/><rect width="28.235" height="1.569" x="45.471" y="69" stroke="#000" stroke-width="1.569" rx=".784"/><rect width="22.745" height="1.569" x="45.471" y="84.686" stroke="#000" stroke-width="1.569" rx=".784"/><rect width="15.686" height="1.569" x="45.471" y="100.373" stroke="#000" stroke-width="1.569" rx=".784"/><circle cx="92.529" cy="48.608" r="14.471" stroke="#000" stroke-width="4"/><path stroke="#000" stroke-width="4" d="m96.451 62.725 5.882 18.824"/></svg>