<svg xmlns="http://www.w3.org/2000/svg" width="138" height="138" fill="none"><mask id="a" fill="#fff"><path d="M28.25 44a8 8 0 0 1 8-8h66.5a8 8 0 0 1 8 8v50a8 8 0 0 1-8 8h-66.5a8 8 0 0 1-8-8V44Z"/></mask><path fill="#fff" d="M36.25 36v4h66.5v-8h-66.5v4Zm74.5 8h-4v50h8V44h-4Zm-8 58v-4h-66.5v8h66.5v-4Zm-74.5-8h4V44h-8v50h4Zm8 8v-4a4 4 0 0 1-4-4h-8c0 6.627 5.373 12 12 12v-4Zm74.5-8h-4a4 4 0 0 1-4 4v8c6.627 0 12-5.373 12-12h-4Zm-8-58v4a4 4 0 0 1 4 4h8c0-6.627-5.373-12-12-12v4Zm-66.5 0v-4c-6.627 0-12 5.373-12 12h8a4 4 0 0 1 4-4v-4Z" mask="url(#a)"/><path stroke="#fff" stroke-width="4" d="M30.421 52.5h78.158"/><circle cx="38.671" cy="45.553" r="2.605" fill="#fff"/><circle cx="47.355" cy="45.553" r="2.605" fill="#fff"/><circle cx="56.039" cy="45.553" r="2.605" fill="#fff"/><path stroke="#fff" stroke-width="4" d="m57.776 74.21 10.68-8.215a1 1 0 0 1 1.22 0l10.68 8.216m-11.29-6.948v25.184"/></svg>