<svg xmlns="http://www.w3.org/2000/svg" width="138" height="138" fill="none"><mask id="a" fill="#fff"><path d="M19 35c0-5.523 4.477-10 10-10h23c5.523 0 10 4.477 10 10v22c0 5.523-4.477 10-10 10H29c-5.523 0-10-4.477-10-10V35Z"/></mask><path fill="#fff" d="M29 25v4h23v-8H29v4Zm33 10h-4v22h8V35h-4ZM52 67v-4H29v8h23v-4ZM19 57h4V35h-8v22h4Zm10 10v-4a6 6 0 0 1-6-6h-8c0 7.732 6.268 14 14 14v-4Zm33-10h-4a6 6 0 0 1-6 6v8c7.732 0 14-6.268 14-14h-4ZM52 25v4a6 6 0 0 1 6 6h8c0-7.732-6.268-14-14-14v4Zm-23 0v-4c-7.732 0-14 6.268-14 14h8a6 6 0 0 1 6-6v-4Z" mask="url(#a)"/><mask id="b" fill="#fff"><path d="M76 86c0-5.523 4.477-10 10-10h23c5.523 0 10 4.477 10 10v22c0 5.523-4.477 10-10 10H86c-5.523 0-10-4.477-10-10V86Z"/></mask><path fill="#fff" d="M86 76v4h23v-8H86v4Zm33 10h-4v22h8V86h-4Zm-10 32v-4H86v8h23v-4Zm-33-10h4V86h-8v22h4Zm10 10v-4a6 6 0 0 1-6-6h-8c0 7.732 6.268 14 14 14v-4Zm33-10h-4a6 6 0 0 1-6 6v8c7.732 0 14-6.268 14-14h-4Zm-10-32v4a6 6 0 0 1 6 6h8c0-7.732-6.268-14-14-14v4Zm-23 0v-4c-7.732 0-14 6.268-14 14h8a6 6 0 0 1 6-6v-4Z" mask="url(#b)"/><mask id="c" fill="#fff"><path d="M19 97c0-11.598 9.402-21 21-21h1c11.598 0 21 9.402 21 21s-9.402 21-21 21h-1c-11.598 0-21-9.402-21-21Z"/></mask><path fill="#fff" d="M40 76v4h1v-8h-1v4Zm1 42v-4h-1v8h1v-4Zm-1 0v-4c-9.389 0-17-7.611-17-17h-8c0 13.807 11.193 25 25 25v-4Zm22-21h-4c0 9.389-7.611 17-17 17v8c13.807 0 25-11.193 25-25h-4ZM41 76v4c9.389 0 17 7.611 17 17h8c0-13.807-11.193-25-25-25v4Zm-1 0v-4c-13.807 0-25 11.193-25 25h8c0-9.389 7.611-17 17-17v-4Z" mask="url(#c)"/><mask id="d" fill="#fff"><path d="M90.225 22.971c3.931-3.88 10.263-3.838 14.142.092l16.157 16.37c3.88 3.93 3.839 10.262-.092 14.141L104.775 69.03c-3.931 3.88-10.263 3.838-14.142-.092l-16.157-16.37c-3.88-3.93-3.839-10.262.092-14.141L90.225 22.97Z"/></mask><path fill="#fff" d="m104.367 23.063-2.847 2.81 16.157 16.37 2.847-2.81 2.847-2.81-16.157-16.37-2.847 2.81Zm16.065 30.511-2.81-2.846-15.657 15.454 2.81 2.847 2.809 2.847 15.658-15.455-2.81-2.847Zm-29.8 15.363 2.847-2.81-16.156-16.37-2.847 2.81-2.847 2.81 16.157 16.37 2.847-2.81ZM74.569 38.426l2.81 2.846 15.657-15.454-2.81-2.847-2.81-2.847L71.758 35.58l2.81 2.847Zm-.092 14.142 2.847-2.81a6 6 0 0 1 .055-8.486l-2.81-2.846-2.81-2.847c-5.503 5.431-5.56 14.295-.13 19.798l2.848-2.81Zm30.299 16.46-2.81-2.846a6 6 0 0 1-8.486-.055l-2.846 2.81-2.847 2.81c5.431 5.502 14.296 5.56 19.798.129l-2.809-2.847Zm15.749-29.596-2.847 2.81a6 6 0 0 1-.055 8.486l2.81 2.846 2.81 2.847c5.503-5.431 5.561-14.295.129-19.798l-2.847 2.81Zm-16.157-16.369 2.847-2.81c-5.431-5.502-14.296-5.56-19.799-.129l2.81 2.847 2.81 2.847a6 6 0 0 1 8.485.055l2.847-2.81Z" mask="url(#d)"/></svg>