<svg xmlns="http://www.w3.org/2000/svg" width="138" height="138" fill="none"><mask id="a" fill="#fff"><path d="M22 38c0-5.523 4.477-10 10-10h74c5.523 0 10 4.477 10 10v10c0 5.523-4.477 10-10 10H32c-5.523 0-10-4.477-10-10V38Z"/></mask><path fill="#fff" d="M32 28v4h74v-8H32v4Zm84 10h-4v10h8V38h-4Zm-10 20v-4H32v8h74v-4ZM22 48h4V38h-8v10h4Zm10 10v-4a6 6 0 0 1-6-6h-8c0 7.732 6.268 14 14 14v-4Zm84-10h-4a6 6 0 0 1-6 6v8c7.732 0 14-6.268 14-14h-4Zm-10-20v4a6 6 0 0 1 6 6h8c0-7.732-6.268-14-14-14v4Zm-74 0v-4c-7.732 0-14 6.268-14 14h8a6 6 0 0 1 6-6v-4Z" mask="url(#a)"/><mask id="b" fill="#fff"><path d="M73 78c0-5.523 4.477-10 10-10h23c5.523 0 10 4.477 10 10v22c0 5.523-4.477 10-10 10H83c-5.523 0-10-4.477-10-10V78Z"/></mask><path fill="#fff" d="M83 68v4h23v-8H83v4Zm33 10h-4v22h8V78h-4Zm-10 32v-4H83v8h23v-4Zm-33-10h4V78h-8v22h4Zm10 10v-4a6 6 0 0 1-6-6h-8c0 7.732 6.268 14 14 14v-4Zm33-10h-4a6 6 0 0 1-6 6v8c7.732 0 14-6.268 14-14h-4Zm-10-32v4a6 6 0 0 1 6 6h8c0-7.732-6.268-14-14-14v4Zm-23 0v-4c-7.732 0-14 6.268-14 14h8a6 6 0 0 1 6-6v-4Z" mask="url(#b)"/><rect width="36" height="2" x="23" y="72" stroke="#fff" stroke-width="2" rx="1"/><rect width="36" height="2" x="23" y="83" stroke="#fff" stroke-width="2" rx="1"/><rect width="22" height="2" x="23" y="94" stroke="#fff" stroke-width="2" rx="1"/></svg>