<svg xmlns="http://www.w3.org/2000/svg" width="138" height="138" fill="none"><mask id="a" fill="#fff"><path d="M22 32c0-5.523 4.477-10 10-10h74c5.523 0 10 4.477 10 10v46H22V32Z"/></mask><path fill="#fff" d="M18 32c0-7.732 6.268-14 14-14h74c7.732 0 14 6.268 14 14h-8a6 6 0 0 0-6-6H32a6 6 0 0 0-6 6h-8Zm98 46H22h94Zm-98 0V32c0-7.732 6.268-14 14-14v8a6 6 0 0 0-6 6v46h-8Zm88-60c7.732 0 14 6.268 14 14v46h-8V32a6 6 0 0 0-6-6v-8Z" mask="url(#a)"/><mask id="b" fill="#fff"><path d="M22 110c0 5.523 4.477 10 10 10h74c5.523 0 10-4.477 10-10V78H22v32Z"/></mask><path fill="#fff" d="M118 80v-2h-4v2h4Zm-94 0v-2h-4v2h4Zm0 8v-4h-4v4h4Zm94 0v-4h-4v4h4Zm-94 8v-4h-4v4h4Zm94 0v-4h-4v4h4Zm-94 8v-4h-4v4h4Zm94 0v-4h-4v4h4Zm-94 4h-4v2a12.057 12.057 0 0 0 .23 2.34l1.96-.389.98-.193.982-.195-.025-.142A8.025 8.025 0 0 1 24 110v-2Zm94 0h-4v2a8.07 8.07 0 0 1-.128 1.421c-.008.047-.015.095-.024.142l1.962.388.241.048 1.72.341A12.001 12.001 0 0 0 118 110v-2Zm-92.113 11.146.556-.831 1.114-1.662-.013-.007c-.044-.03-.085-.061-.128-.091-.066-.046-.133-.091-.197-.139-.022-.016-.043-.035-.065-.052-.081-.062-.163-.124-.242-.189a7.992 7.992 0 0 1-1.405-1.504c-.051-.071-.103-.142-.152-.215l-.008-.013-1.662 1.114-.831.555v.001l-.83.556.016.026a11.926 11.926 0 0 0 .887 1.153 12.085 12.085 0 0 0 2.378 2.112l.026.017.556-.831Zm86.807.814a12.057 12.057 0 0 0 2.683-2.476c.204-.255.399-.517.582-.789l.017-.026-.83-.556v-.001l-.831-.555-1.662-1.114-.008.013c-.049.073-.101.144-.152.215a8.128 8.128 0 0 1-.565.701 8.18 8.18 0 0 1-1.082.992l-.066.052c-.064.048-.13.093-.196.139l-.111.079-.03.019 1.114 1.662.347.52.764 1.142.026-.017ZM32 118a8.059 8.059 0 0 1-1.13-.08l-.056-.007a8.95 8.95 0 0 1-.235-.04l-.143-.025-.387 1.962-.09.453-.299 1.508.03.005c.749.147 1.521.224 2.31.224v-4Zm74 4a11.99 11.99 0 0 0 2.339-.229l-.388-1.961-.182-.927-.206-1.035-.143.025c-.078.014-.156.028-.234.04l-.057.007A8.036 8.036 0 0 1 106 118h-2.056v4H106Zm-71.944 0v-4H32v4h2.056Zm8.221 0v-4h-4.11v4h4.11Zm8.223 0v-4h-4.111v4H50.5Zm8.223 0v-4H54.61v4h4.112Zm8.221 0v-4h-4.111v4h4.111Zm8.223 0v-4h-4.111v4h4.111Zm8.222 0v-4h-4.112v4h4.112Zm8.222 0v-4H87.5v4h4.111Zm8.222 0v-4h-4.11v4h4.11Z" mask="url(#b)"/><mask id="c" fill="#fff"><path d="M39 62a4 4 0 0 1 4-4h53a4 4 0 0 1 4 4v17H39V62Z"/></mask><path fill="#fff" d="M35 62a8 8 0 0 1 8-8h53a8 8 0 0 1 8 8H35Zm65 17H39h61Zm-65 0V62a8 8 0 0 1 8-8v25h-8Zm61-25a8 8 0 0 1 8 8v17h-8V54Z" mask="url(#c)"/><rect width="33" height="2" x="53" y="39" stroke="#fff" stroke-width="2" rx="1"/><rect width="18" height="2" x="60" y="47" stroke="#fff" stroke-width="2" rx="1"/><rect width="92" height="2" x="23" y="77" stroke="#fff" stroke-width="2" rx="1"/></svg>