<svg xmlns="http://www.w3.org/2000/svg" width="291" height="47" fill="none"><path fill="#384FFF" d="M267.207 37V11.75h5.4v6.45l-1.45-.1c.533-1.467 1.3-2.717 2.3-3.75 1-1.067 2.166-1.883 3.5-2.45 1.333-.6 2.783-.9 4.35-.9 1.8 0 3.416.4 4.85 1.2 1.466.767 2.616 1.917 3.45 3.45.866 1.5 1.3 3.383 1.3 5.65V37h-5.75V23.05c0-1.6-.217-2.9-.65-3.9-.434-1-1.067-1.733-1.9-2.2-.8-.467-1.734-.7-2.8-.7-1 0-2.034.25-3.1.75-1.034.5-1.917 1.333-2.65 2.5-.734 1.167-1.1 2.75-1.1 4.75V37h-5.75Zm-15.968 10c-3.4 0-6.066-.667-8-2-1.933-1.3-2.9-3.117-2.9-5.45 0-1.5.4-2.817 1.2-3.95.834-1.133 2.017-2.017 3.55-2.65l2.8 2.4c-.7.3-1.25.75-1.65 1.35-.366.6-.55 1.25-.55 1.95 0 .967.367 1.817 1.1 2.55.767.733 2 1.1 3.7 1.1h3.5c1.8 0 3.15-.267 4.05-.8.9-.5 1.35-1.25 1.35-2.25 0-.8-.333-1.417-1-1.85-.633-.433-1.516-.65-2.65-.65h-6.25c-1.466 0-2.783-.25-3.95-.75-1.133-.5-2.033-1.183-2.7-2.05a5 5 0 0 1-1-3.05c0-1.267.384-2.383 1.15-3.35.8-1 1.934-1.8 3.4-2.4l3.1 2.5c-.8.067-1.416.35-1.85.85-.433.467-.65.967-.65 1.5 0 .667.267 1.2.8 1.6.534.367 1.35.55 2.45.55h6.1c2.534 0 4.55.633 6.05 1.9 1.534 1.267 2.3 2.95 2.3 5.05 0 2.4-.966 4.317-2.9 5.75-1.933 1.433-4.55 2.15-7.85 2.15h-2.7Zm1.5-18.05c-2.066 0-3.883-.383-5.45-1.15-1.566-.767-2.8-1.817-3.7-3.15-.866-1.367-1.3-2.933-1.3-4.7 0-1.767.434-3.317 1.3-4.65.9-1.333 2.134-2.383 3.7-3.15 1.567-.767 3.384-1.15 5.45-1.15 2.067 0 3.867.383 5.4 1.15 1.567.767 2.784 1.817 3.65 3.15.9 1.333 1.35 2.883 1.35 4.65 0 1.767-.45 3.333-1.35 4.7-.866 1.333-2.083 2.383-3.65 3.15-1.533.767-3.333 1.15-5.4 1.15Zm0-4.6c1.5 0 2.717-.4 3.65-1.2.934-.833 1.4-1.9 1.4-3.2 0-1.3-.466-2.35-1.4-3.15-.933-.8-2.15-1.2-3.65-1.2-1.533 0-2.766.4-3.7 1.2-.9.8-1.35 1.85-1.35 3.15 0 1.3.45 2.367 1.35 3.2.934.8 2.167 1.2 3.7 1.2Zm7.3-8.9-3.6-1.75c0-1.467.284-2.767.85-3.9.567-1.133 1.334-2.017 2.3-2.65 1-.667 2.117-1 3.35-1 .367 0 .717.017 1.05.05.334 0 .584.033.75.1v4.85l-.25.5c-.333-.1-.75-.15-1.25-.15-1.066 0-1.866.367-2.4 1.1-.533.733-.8 1.683-.8 2.85ZM232.218 37V11.75h5.75V37h-5.75Zm2.9-29.05c-1 0-1.85-.35-2.55-1.05-.7-.7-1.05-1.567-1.05-2.6 0-.967.35-1.8 1.05-2.5.7-.733 1.567-1.1 2.6-1.1.967 0 1.8.367 2.5 1.1.734.7 1.1 1.55 1.1 2.55 0 1-.366 1.85-1.1 2.55-.7.7-1.55 1.05-2.55 1.05Zm-16.666 29.8c-2.733 0-5.067-.65-7-1.95-1.933-1.3-3.217-3.083-3.85-5.35l5.25-1.3.55.1c.3 1.067.933 1.917 1.9 2.55 1 .6 2.15.9 3.45.9 1.267 0 2.333-.267 3.2-.8.9-.567 1.35-1.283 1.35-2.15 0-.733-.267-1.317-.8-1.75-.5-.467-1.283-.817-2.35-1.05l-4.75-1.05c-2.333-.533-4.117-1.417-5.35-2.65-1.2-1.267-1.8-2.783-1.8-4.55 0-1.533.417-2.867 1.25-4 .867-1.167 2.05-2.067 3.55-2.7 1.5-.667 3.217-1 5.15-1 2.633 0 4.867.65 6.7 1.95 1.833 1.3 3.05 3.117 3.65 5.45l-5 1.05-.55-.1c-.267-1-.883-1.8-1.85-2.4-.933-.6-2-.9-3.2-.9-1.133 0-2.1.233-2.9.7-.767.433-1.15 1.033-1.15 1.8 0 .567.233 1.083.7 1.55.467.433 1.2.75 2.2.95l4.75 1.1c2.467.567 4.317 1.433 5.55 2.6 1.267 1.133 1.9 2.683 1.9 4.65 0 1.7-.467 3.183-1.4 4.45-.9 1.233-2.15 2.2-3.75 2.9-1.567.667-3.367 1-5.4 1Zm-24.707 0c-2.567 0-4.834-.567-6.8-1.7-1.934-1.133-3.45-2.7-4.55-4.7-1.1-2-1.65-4.333-1.65-7 0-2.633.533-4.95 1.599-6.95 1.1-2.033 2.6-3.6 4.5-4.7 1.934-1.133 4.151-1.7 6.651-1.7s4.666.583 6.5 1.75c1.866 1.133 3.316 2.733 4.349 4.8 1.067 2.067 1.601 4.483 1.601 7.25v.95l-.75.75h-21.75v-4.8h19.899l-3.049 1.15c-.034-1.4-.367-2.6-1.001-3.6-.6-1.033-1.399-1.817-2.399-2.35-.967-.567-2.067-.85-3.301-.85-1.333 0-2.549.317-3.649.95-1.1.6-1.95 1.45-2.55 2.55-.6 1.067-.9 2.317-.9 3.75v2c0 1.367.316 2.617.95 3.75a7.746 7.746 0 0 0 2.649 2.65c1.1.667 2.317 1 3.651 1 1.266 0 2.416-.333 3.45-1a7.256 7.256 0 0 0 2.5-2.8h.6l4.65 2c-1 2.167-2.484 3.85-4.45 5.05-1.934 1.2-4.184 1.8-6.75 1.8Zm-30.602 0c-2.266 0-4.316-.567-6.15-1.7-1.833-1.167-3.283-2.75-4.35-4.75-1.066-2-1.6-4.3-1.6-6.9 0-2.633.534-4.95 1.6-6.95 1.067-2 2.517-3.567 4.35-4.7 1.834-1.167 3.884-1.75 6.15-1.75 1.867 0 3.534.383 5 1.15 1.5.767 2.734 1.767 3.7 3 1 1.2 1.7 2.517 2.1 3.95v10.6c-.4 1.4-1.1 2.717-2.1 3.95-.966 1.233-2.2 2.233-3.7 3-1.466.733-3.133 1.1-5 1.1Zm.85-5.25c1.467 0 2.75-.333 3.85-1 1.1-.7 1.967-1.667 2.6-2.9.634-1.233.95-2.65.95-4.25s-.316-3-.95-4.2c-.633-1.233-1.5-2.2-2.6-2.9-1.1-.7-2.383-1.05-3.85-1.05-1.4 0-2.65.35-3.75 1.05-1.1.7-1.95 1.667-2.55 2.9-.6 1.2-.9 2.6-.9 4.2s.3 3.017.9 4.25c.6 1.233 1.45 2.2 2.55 2.9 1.1.667 2.35 1 3.75 1Zm7.6 4.5v-7.8l1.2-4.85-1.55-4.8V1l5.6-.7.15.4V37h-5.4Z"/><path fill="#000" d="M144.254 37.45a3.84 3.84 0 0 1-2.75-1.1c-.733-.733-1.1-1.633-1.1-2.7 0-1.033.367-1.917 1.1-2.65a3.84 3.84 0 0 1 2.75-1.1c1.033 0 1.917.367 2.65 1.1a3.613 3.613 0 0 1 1.1 2.65c0 1.067-.367 1.967-1.1 2.7a3.612 3.612 0 0 1-2.65 1.1Z"/><path fill="#384FFF" d="m132.692 37-17.55-24.85v-.4h6.45l17.55 24.85v.4h-6.45Zm-17.85 0v-.4l10.4-14.75 3.4 4.5-7.5 10.65h-6.3Zm14-10.45-3.4-4.5 7.1-10.3h6.3v.4l-10 14.4ZM107.283 37V11.75h5.75V37h-5.75Zm2.9-29.05c-1 0-1.85-.35-2.55-1.05-.7-.7-1.05-1.567-1.05-2.6 0-.967.35-1.8 1.05-2.5.7-.733 1.566-1.1 2.6-1.1.966 0 1.8.367 2.5 1.1.733.7 1.1 1.55 1.1 2.55 0 1-.367 1.85-1.1 2.55-.7.7-1.55 1.05-2.55 1.05ZM62.054 37V11.75h5.4v6.15l-.95-.95c.567-1.267 1.3-2.333 2.2-3.2a9.403 9.403 0 0 1 3.15-2c1.2-.5 2.55-.75 4.05-.75 2.1 0 3.967.583 5.6 1.75 1.634 1.167 2.734 2.883 3.3 5.15l-1.85-.1c.567-1.433 1.367-2.65 2.4-3.65a10.73 10.73 0 0 1 3.6-2.3c1.4-.567 2.867-.85 4.4-.85 1.7 0 3.25.4 4.65 1.2 1.434.767 2.567 1.917 3.4 3.45.867 1.5 1.3 3.383 1.3 5.65V37h-5.75V22.7c0-1.5-.216-2.717-.65-3.65-.433-.967-1.033-1.667-1.8-2.1-.766-.467-1.65-.7-2.65-.7-.933 0-1.916.25-2.95.75-1 .5-1.866 1.333-2.6 2.5-.7 1.133-1.05 2.717-1.05 4.75V37h-5.75V22.7c0-1.5-.216-2.717-.65-3.65-.433-.967-1.033-1.667-1.8-2.1-.766-.467-1.65-.7-2.65-.7-.933 0-1.916.25-2.95.75-1 .5-1.866 1.333-2.6 2.5-.7 1.167-1.05 2.75-1.05 4.75V37h-5.75Zm-15.657.75c-2.567 0-4.834-.567-6.8-1.7-1.934-1.133-3.45-2.7-4.55-4.7-1.1-2-1.65-4.333-1.65-7 0-2.633.533-4.95 1.6-6.95 1.1-2.033 2.6-3.6 4.5-4.7 1.933-1.133 4.15-1.7 6.65-1.7s4.666.583 6.5 1.75c1.867 1.133 3.317 2.733 4.35 4.8 1.066 2.067 1.6 4.483 1.6 7.25v.95l-.75.75h-21.75v-4.8h19.9l-3.05 1.15c-.034-1.4-.367-2.6-1-3.6-.6-1.033-1.4-1.817-2.4-2.35-.967-.567-2.067-.85-3.3-.85-1.334 0-2.55.317-3.65.95-1.1.6-1.95 1.45-2.55 2.55-.6 1.067-.9 2.317-.9 3.75v2c0 1.367.317 2.617.95 3.75a7.754 7.754 0 0 0 2.65 2.65c1.1.667 2.316 1 3.65 1 1.267 0 2.416-.333 3.45-1a7.251 7.251 0 0 0 2.5-2.8h.6l4.65 2c-1 2.167-2.483 3.85-4.45 5.05-1.933 1.2-4.183 1.8-6.75 1.8ZM18.228 37V11.75h5.4v6.45l-1.45-.1c.7-1.967 1.867-3.517 3.5-4.65 1.633-1.133 3.5-1.7 5.6-1.7h2.45v5.15h-3.3c-1.3 0-2.433.3-3.4.9-.966.567-1.716 1.383-2.25 2.45-.533 1.067-.8 2.333-.8 3.8V37h-5.75ZM4.4 37V9.6c0-2.633.733-4.717 2.2-6.25C8.067 1.783 10.033 1 12.5 1h3.25v4.65l-.25.55h-1.65c-1.3 0-2.25.283-2.85.85-.567.567-.85 1.517-.85 2.85V37H4.4ZM.1 16.9v-5.15h15.65v5.15H.1Z"/></svg>