<svg xmlns="http://www.w3.org/2000/svg" width="138" height="138" fill="none"><mask id="a" fill="#fff"><path d="M29 41.91c0-5.522 4.477-10 10-10h59c5.523 0 10 4.478 10 10v37.1c0 5.523-4.477 10-10 10H39c-5.523 0-10-4.477-10-10v-37.1Z"/></mask><path fill="#000" d="M39 31.91v4h59v-8H39v4Zm69 10h-4v37.1h8v-37.1h-4Zm-10 47.1v-4H39v8h59v-4Zm-69-10h4v-37.1h-8v37.1h4Zm10 10v-4a6 6 0 0 1-6-6h-8c0 7.732 6.268 14 14 14v-4Zm69-10h-4a6 6 0 0 1-6 6v8c7.732 0 14-6.268 14-14h-4Zm-10-47.1v4a6 6 0 0 1 6 6h8c0-7.731-6.268-14-14-14v4Zm-59 0v-4c-7.732 0-14 6.269-14 14h8a6 6 0 0 1 6-6v-4Z" mask="url(#a)"/><mask id="b" fill="#fff"><path d="M54.812 46.95a8 8 0 0 1 8-8h12.94a8 8 0 0 1 8 8v27.02a8 8 0 0 1-8 8h-12.94a8 8 0 0 1-8-8V46.95Z"/></mask><path fill="#000" d="M62.812 38.95v4h12.94v-8h-12.94v4Zm20.94 8h-4v27.02h8V46.95h-4Zm-8 35.02v-4h-12.94v8h12.94v-4Zm-20.94-8h4V46.95h-8v27.02h4Zm8 8v-4a4 4 0 0 1-4-4h-8c0 6.628 5.373 12 12 12v-4Zm20.94-8h-4a4 4 0 0 1-4 4v8c6.628 0 12-5.372 12-12h-4Zm-8-35.02v4a4 4 0 0 1 4 4h8c0-6.627-5.372-12-12-12v4Zm-12.94 0v-4c-6.627 0-12 5.373-12 12h8a4 4 0 0 1 4-4v-4Z" mask="url(#b)"/><mask id="c" fill="#fff"><path d="M62.634 89.881a4 4 0 0 1 4-4h5.297a4 4 0 0 1 4 4v9.208a4 4 0 0 1-4 4h-5.297a4 4 0 0 1-4-4v-9.208Z"/></mask><path fill="#000" d="M66.634 85.881v4h5.297v-8h-5.297v4Zm9.297 4h-4v9.208h8v-9.208h-4Zm-4 13.208v-4h-5.297v8h5.297v-4Zm-9.297-4h4v-9.208h-8v9.208h4Zm4 4v-4h-8a8 8 0 0 0 8 8v-4Zm9.297-4h-4v8a8 8 0 0 0 8-8h-4Zm-4-13.208v4h8a8 8 0 0 0-8-8v4Zm-5.297 0v-4a8 8 0 0 0-8 8h8v-4Z" mask="url(#c)"/><mask id="d" fill="#fff"><path d="M50.119 101.134c0-1.08.875-1.956 1.955-1.956H86.49a1.955 1.955 0 1 1 0 3.91H52.074a1.955 1.955 0 0 1-1.955-1.954Z"/></mask><path fill="#000" d="M52.074 99.178v4H86.49v-8H52.074v4Zm34.416 3.911v-4H52.074v8H86.49v-4Zm-34.416 0v-4c1.13 0 2.045.916 2.045 2.045h-8a5.955 5.955 0 0 0 5.955 5.955v-4Zm36.372-1.955h-4c0-1.13.915-2.045 2.044-2.045v8a5.955 5.955 0 0 0 5.956-5.955h-4Zm-1.956-1.956v4a2.044 2.044 0 0 1-2.044-2.044h8a5.956 5.956 0 0 0-5.956-5.956v4Zm-34.416 0v-4a5.956 5.956 0 0 0-5.955 5.956h8a2.044 2.044 0 0 1-2.045 2.044v-4Z" mask="url(#d)"/></svg>