<svg xmlns="http://www.w3.org/2000/svg" width="138" height="138" fill="none"><mask id="a" fill="#fff"><path d="M22 110c0 5.523 4.477 10 10 10h74c5.523 0 10-4.477 10-10V79H22v31Z"/></mask><path fill="#fff" d="M18 110c0 7.732 6.268 14 14 14h74c7.732 0 14-6.268 14-14h-8a6 6 0 0 1-6 6H32a6 6 0 0 1-6-6h-8Zm98-31H22h94Zm-98 0v31c0 7.732 6.268 14 14 14v-8a6 6 0 0 1-6-6V79h-8Zm88 45c7.732 0 14-6.268 14-14V79h-8v31a6 6 0 0 1-6 6v8Z" mask="url(#a)"/><mask id="b" fill="#fff"><path d="M22 30c0-5.523 4.477-10 10-10h74c5.523 0 10 4.477 10 10v49H22V30Z"/></mask><path fill="#fff" d="M118 76.958V79h-4v-2.042h4Zm-94 0V79h-4v-2.042h4Zm0-8.166v4.083h-4v-4.083h4Zm94 0v4.083h-4v-4.083h4Zm-94-8.167v4.083h-4v-4.083h4Zm94 0v4.083h-4v-4.083h4Zm-94-8.167v4.084h-4v-4.084h4Zm94 0v4.084h-4v-4.084h4Zm-94-8.166v4.083h-4v-4.083h4Zm94 0v4.083h-4v-4.083h4Zm-94-8.167v4.083h-4v-4.083h4Zm94 0v4.083h-4v-4.083h4Zm-94-4.083h-4V30c0-.789.077-1.561.224-2.31l.006-.03 1.96.389.98.193.982.194-.025.143A7.951 7.951 0 0 0 24 30v2.042Zm94 0h-4V30a8.057 8.057 0 0 0-.128-1.42c-.008-.048-.015-.096-.024-.143l1.962-.388.241-.048 1.72-.34.005.028c.147.75.224 1.522.224 2.311v2.042ZM25.887 20.853l.556.832 1.114 1.662-.013.008c-.044.029-.085.06-.128.09-.066.046-.133.09-.197.139l-.065.052c-.081.062-.163.124-.242.19a8.052 8.052 0 0 0-1.405 1.503c-.052.071-.104.142-.152.215l-.008.013-1.662-1.114-.831-.555v-.001l-.83-.556.016-.026a12.06 12.06 0 0 1 .887-1.153 12.055 12.055 0 0 1 2.378-2.112l.026-.017.556.83Zm86.807-.813a12.055 12.055 0 0 1 2.683 2.476c.204.255.399.517.582.789l.017.026-.83.556-.831.556-1.662 1.114-.008-.013c-.049-.073-.101-.144-.152-.215a8.192 8.192 0 0 0-.565-.701 8.134 8.134 0 0 0-1.082-.992l-.066-.052c-.064-.048-.13-.093-.196-.139l-.111-.079-.03-.02 1.114-1.661.347-.52.764-1.142.026.017ZM32 22a8.12 8.12 0 0 0-1.13.08l-.056.007c-.08.012-.157.026-.235.04l-.143.025-.387-1.962-.09-.453-.299-1.507.03-.006C30.438 18.077 31.21 18 32 18v4Zm74-4a12.054 12.054 0 0 1 2.339.23l-.388 1.96-.182.927-.206 1.035c-.047-.01-.095-.017-.143-.025-.078-.014-.156-.028-.234-.04l-.057-.007A7.802 7.802 0 0 0 106 22h-2.056v-4H106Zm-71.944 0v4H32v-4h2.056Zm8.221 0v4h-4.11v-4h4.11Zm8.223 0v4h-4.111v-4H50.5Zm8.223 0v4H54.61v-4h4.112Zm8.221 0v4h-4.111v-4h4.111Zm8.223 0v4h-4.111v-4h4.111Zm8.222 0v4h-4.112v-4h4.112Zm8.222 0v4H87.5v-4h4.111Zm8.222 0v4h-4.11v-4h4.11Z" mask="url(#b)"/><rect width="72" height="2" x="1" y="-1" stroke="#fff" stroke-width="2" rx="1" transform="matrix(1 0 0 -1 32 109)"/><rect width="18" height="2" x="1" y="-1" stroke="#fff" stroke-width="2" rx="1" transform="matrix(1 0 0 -1 32 92)"/><rect width="5" height="2" x="1" y="-1" stroke="#fff" stroke-width="2" rx="1" transform="matrix(1 0 0 -1 99 92)"/><rect width="92" height="2" x="1" y="-1" stroke="#fff" stroke-width="2" rx="1" transform="matrix(1 0 0 -1 22 81)"/><rect width="5" height="2" x="1" y="-1" stroke="#fff" stroke-width="2" rx="1" transform="matrix(1 0 0 -1 89 92)"/><rect width="5" height="2" x="1" y="-1" stroke="#fff" stroke-width="2" rx="1" transform="matrix(1 0 0 -1 78 92)"/></svg>