<svg xmlns="http://www.w3.org/2000/svg" width="149" height="149" fill="none"><path fill="#1ABCFE" d="M74.424 75.5c0-8.194 6.478-14.831 14.462-14.831 7.991 0 14.463 6.63 14.463 14.831 0 8.194-6.472 14.831-14.463 14.831-7.978 0-14.462-6.63-14.462-14.831Z"/><path fill="#0ACF83" d="M45.5 105.169c0-8.195 6.478-14.838 14.462-14.838h14.463v14.838c0 8.188-6.478 14.831-14.462 14.831-7.985 0-14.463-6.643-14.463-14.831Z"/><path fill="#FF7262" d="M74.424 31v29.669h14.462c7.991 0 14.463-6.643 14.463-14.838 0-8.188-6.472-14.831-14.463-14.831H74.424Z"/><path fill="#F24E1E" d="M45.5 45.831c0 8.195 6.478 14.838 14.462 14.838h14.463V31H59.963C51.977 31 45.5 37.643 45.5 45.831Z"/><path fill="#A259FF" d="M45.5 75.5c0 8.194 6.478 14.831 14.462 14.831h14.463V60.67H59.963c-7.985 0-14.463 6.63-14.463 14.831Z"/></svg>